<svg width="19" height="16" viewBox="0 0 19 16" fill="none" xmlns="http://www.w3.org/2000/svg">
<path d="M9.31102 0.517433C9.57383 0.456175 9.85251 0.558931 10.021 0.785191L13.5036 7.63524L17.7279 5.36276C18.362 5.17898 18.773 5.69869 18.6425 6.38735C17.9828 9.10544 17.6327 12.0073 16.9598 14.7096C16.846 15.167 16.734 15.4526 16.2569 15.5H2.6985C2.2893 15.4595 2.11468 15.2145 2.00356 14.7995C1.28922 12.1357 1.04228 9.08469 0.357042 6.38636C0.224756 5.78465 0.663945 5.20072 1.21778 5.37264L5.45181 7.63425L9.01735 0.680459C9.10818 0.635997 9.21842 0.53917 9.3119 0.517433H9.31102Z" fill="#C58000"/>
</svg>
